<?xml version="1.0" standalone="no"?>
<!DOCTYPE svg PUBLIC "-//W3C//DTD SVG 20010904//EN"
 "http://www.w3.org/TR/2001/REC-SVG-20010904/DTD/svg10.dtd">
<svg version="1.0" xmlns="http://www.w3.org/2000/svg"
 width="600.000000pt" height="536.000000pt" viewBox="0 0 600.000000 536.000000"
 preserveAspectRatio="xMidYMid meet">

<g transform="translate(0.000000,536.000000) scale(0.100000,-0.100000)"
fill="#000000" stroke="none">
<path d="M1705 5006 c-135 -22 -280 -77 -406 -152 -35 -22 -89 -52 -119 -67
-168 -83 -371 -306 -466 -512 -64 -139 -86 -235 -90 -390 l-3 -139 -51 -67
c-50 -66 -61 -87 -38 -72 28 17 37 12 22 -12 -8 -12 -16 -31 -18 -41 -2 -11
-20 -46 -40 -79 -39 -66 -75 -151 -100 -235 -23 -77 -3 -49 24 35 23 72 108
250 115 243 3 -2 -13 -40 -34 -84 -36 -74 -71 -186 -71 -229 0 -39 18 2 34 76
22 100 86 233 139 287 48 49 75 58 31 10 -16 -18 -20 -25 -8 -15 28 23 41 22
19 -3 -10 -11 -13 -20 -7 -20 6 0 14 5 17 10 9 15 25 2 18 -15 -3 -9 1 -15 10
-15 8 0 17 5 19 11 2 6 18 17 36 24 29 13 33 12 42 -4 8 -16 5 -20 -20 -25
-42 -8 -37 -23 6 -18 24 3 39 0 45 -9 11 -18 11 -32 0 -25 -4 3 -17 -1 -27
-10 -18 -15 -18 -15 2 -9 41 11 104 -96 104 -176 0 -15 -10 -38 -21 -53 -30
-38 -68 -32 -91 14 -17 33 -18 34 -18 9 0 -38 63 -115 104 -129 58 -19 119 6
155 63 12 18 21 27 21 21 0 -28 -32 -84 -65 -113 -42 -37 -30 -42 14 -5 l30
25 26 -41 c78 -124 98 -171 103 -244 6 -105 -28 -161 -119 -191 l-44 -15 40 6
c48 7 97 35 119 69 9 13 22 50 31 82 l14 58 -4 -58 c-8 -94 -50 -156 -126
-186 -13 -5 -18 -10 -11 -10 21 -1 65 25 94 56 82 86 74 242 -23 434 -35 70
-56 126 -36 95 90 -137 151 -243 169 -296 31 -89 30 -211 -2 -295 -30 -78
-107 -157 -176 -179 l-49 -16 45 5 c57 7 116 47 157 108 l32 47 47 -72 c42
-66 45 -73 29 -83 -10 -5 -32 -22 -49 -37 -44 -39 -10 -36 37 3 l38 31 42 -48
c23 -27 52 -59 63 -71 l22 -22 -43 -91 c-24 -50 -45 -93 -48 -96 -2 -2 -2 18
1 45 6 62 -4 132 -23 157 -11 15 -11 7 2 -41 22 -83 12 -144 -31 -190 -52 -55
-70 -48 -90 32 -10 38 -28 87 -41 110 -19 35 -21 43 -8 43 10 0 13 6 9 16 -3
9 -6 18 -6 20 0 2 -12 4 -27 4 -16 0 -47 7 -71 15 -50 18 -62 14 -62 -21 0
-16 -14 -37 -41 -61 -59 -53 -82 -105 -82 -183 -1 -43 5 -76 17 -98 20 -39 31
-37 16 2 -29 76 -1 203 55 256 28 27 47 20 22 -8 -27 -30 -47 -89 -47 -139 0
-58 36 -141 74 -170 22 -18 26 -29 26 -72 l0 -51 -43 0 c-86 0 -174 65 -220
163 -55 114 -55 251 -1 329 44 63 56 64 23 2 -29 -55 -31 -64 -27 -144 3 -64
10 -99 30 -140 26 -57 82 -130 100 -130 6 0 -4 16 -21 35 -77 88 -111 230 -81
334 13 46 56 106 94 131 l31 21 -35 -7 c-39 -7 -85 -35 -115 -71 -13 -14 -42
-28 -80 -36 -77 -18 -132 -4 -194 50 -62 53 -91 120 -89 208 1 67 1 68 7 20 6
-47 32 -96 66 -125 12 -10 15 -10 15 4 0 9 -6 27 -14 39 -8 12 -17 38 -20 57
-5 28 -2 25 14 -17 19 -46 66 -101 77 -89 2 2 -6 20 -18 41 -28 46 -29 120 -4
163 36 59 112 80 153 42 29 -28 28 -36 -3 -16 -34 23 -71 20 -89 -6 -22 -30
-20 -64 5 -104 43 -71 143 -98 186 -51 46 50 54 92 28 153 -18 44 -92 134
-110 134 -30 0 -266 121 -304 156 -81 73 -119 175 -107 291 7 69 46 202 72
243 10 17 13 18 8 5 -19 -56 -34 -109 -33 -119 0 -6 11 18 23 54 13 36 37 93
55 128 17 34 29 67 26 73 -4 5 -1 8 6 7 6 -2 13 2 16 9 2 6 -3 10 -13 9 -11
-2 -36 -35 -60 -79 -94 -170 -134 -316 -116 -424 24 -147 86 -216 271 -305
152 -72 187 -98 212 -152 22 -48 25 -115 6 -140 -30 -41 -107 -9 -107 45 0 30
14 46 26 28 3 -6 1 -15 -6 -19 -9 -6 -9 -9 0 -15 21 -13 54 29 46 60 -12 46
-49 75 -99 75 -69 0 -113 -44 -137 -137 -9 -34 -9 -32 -5 21 2 32 0 55 -4 50
-13 -14 -31 -74 -32 -103 l0 -26 -10 25 c-10 25 -8 56 7 94 5 13 4 17 -3 13
-6 -4 -13 -1 -16 5 -2 7 -12 -13 -22 -46 -38 -128 15 -253 141 -333 17 -11 16
-12 -11 -7 -16 4 -43 13 -60 20 l-30 14 27 -24 c32 -29 87 -39 185 -34 l70 3
-5 -86 c-6 -103 13 -176 64 -257 l35 -54 -31 22 c-39 28 -78 86 -102 153 -17
48 -18 49 -14 14 17 -138 163 -288 319 -327 26 -7 47 -14 47 -15 0 -45 26
-223 40 -277 10 -40 17 -74 15 -76 -18 -18 -185 -71 -350 -112 -112 -27 -234
-61 -271 -75 -185 -70 -311 -187 -364 -339 -27 -80 -38 -145 -55 -351 -9 -99
-25 -227 -36 -284 -11 -57 -18 -105 -15 -108 12 -12 40 155 66 387 34 319 65
408 182 524 54 54 93 83 149 110 42 20 83 36 92 36 25 0 124 -203 188 -389
l28 -83 -91 -137 c-116 -173 -214 -316 -248 -361 -53 -70 -64 -90 -47 -90 15
0 106 124 282 385 188 278 367 574 475 785 19 36 40 73 49 83 13 15 13 21 -2
51 -32 69 -48 187 -57 445 -6 141 -14 272 -19 293 -7 31 -6 37 9 41 17 4 17 9
3 68 -8 34 -19 71 -24 81 -13 24 5 24 47 -3 44 -27 79 -101 103 -219 35 -169
36 -204 11 -245 -41 -66 -13 -47 33 22 51 77 96 165 231 446 98 205 189 371
208 383 8 5 9 1 5 -10 -5 -12 3 -27 24 -49 30 -30 32 -30 45 -12 20 27 17 10
-6 -34 -38 -75 -180 -400 -180 -413 0 -35 72 70 189 275 114 199 199 330 178
274 -19 -50 -18 -66 2 -86 12 -12 28 -21 36 -21 18 0 23 12 -85 -220 -92 -199
-152 -341 -148 -346 2 -2 55 97 117 219 112 218 160 307 166 307 2 0 -2 -13
-7 -28 -17 -44 -3 -81 33 -89 36 -7 37 -4 -43 -178 -101 -218 -148 -349 -119
-331 5 4 42 66 82 138 39 73 81 145 92 160 l20 28 11 -23 c7 -12 21 -23 33
-25 20 -3 19 -9 -32 -140 -111 -287 -238 -553 -328 -687 -56 -83 -170 -195
-239 -234 -52 -29 -73 -51 -49 -51 5 0 -59 -136 -143 -302 -84 -167 -173 -357
-199 -423 -48 -123 -107 -292 -107 -307 0 -4 93 -8 208 -8 l207 1 28 28 c59
60 153 61 221 1 l34 -30 199 0 c190 0 201 1 219 21 61 67 174 71 236 8 l30
-29 202 0 c193 0 204 1 222 21 60 66 165 70 229 8 17 -16 41 -29 54 -29 22 0
23 3 17 37 -28 170 -14 486 31 718 22 116 78 315 88 315 17 0 143 -62 198 -98
165 -107 205 -239 193 -629 -3 -111 -9 -210 -12 -220 -5 -12 -4 -15 4 -8 31
29 43 435 17 579 -41 230 -181 344 -545 445 -261 73 -355 112 -467 194 -155
115 -289 352 -310 549 l-6 63 49 -51 c86 -88 216 -154 304 -154 29 0 41 -6 53
-24 25 -37 112 -76 171 -76 89 1 177 54 216 131 14 27 28 38 62 48 104 31 212
129 244 223 22 63 22 159 1 209 -14 34 -13 38 5 68 42 66 6 194 -82 294 -32
36 -49 47 -71 47 -37 0 -104 -33 -113 -55 -10 -28 -7 -57 7 -52 6 2 12 10 12
17 0 19 29 34 50 26 34 -13 -2 -116 -42 -116 -25 0 -53 39 -53 75 0 20 9 55
20 77 24 50 24 48 6 48 -20 0 -46 -72 -46 -125 0 -111 119 -113 145 -3 8 32
-27 73 -53 63 -13 -5 -14 -3 -6 5 13 13 66 16 84 5 29 -18 -18 -150 -64 -180
-28 -18 -60 -9 -92 26 -52 57 -58 116 -19 169 26 36 26 52 0 30 -41 -34 -57
-108 -34 -153 6 -12 27 -39 47 -59 43 -45 89 -51 123 -17 30 30 61 106 63 151
1 34 2 37 13 21 23 -31 16 -96 -16 -141 -16 -22 -34 -43 -40 -47 -6 -3 -11
-11 -11 -17 0 -31 76 65 96 121 l13 36 1 -45 c0 -35 3 -42 11 -30 8 11 9 1 5
-40 l-5 -55 20 35 20 35 -6 -45 c-3 -24 -11 -50 -17 -57 -6 -7 -6 -13 -2 -13
5 0 15 9 22 21 21 33 25 15 7 -27 l-16 -38 -37 40 c-20 23 -46 47 -57 55 -11
8 -3 -6 18 -30 93 -105 114 -234 57 -349 -73 -144 -238 -213 -368 -153 -56 26
-76 23 -47 -9 19 -21 14 -36 -30 -72 -11 -10 -15 -18 -8 -18 6 0 25 11 41 25
57 48 73 25 17 -24 -20 -17 -31 -31 -25 -31 5 0 28 16 50 36 22 20 43 35 45
32 11 -11 -78 -98 -108 -107 -26 -7 -28 -9 -9 -10 35 -1 76 24 117 71 36 41
36 41 17 8 -34 -59 -92 -93 -165 -98 -53 -3 -70 0 -116 25 -30 15 -54 32 -55
37 -1 5 17 14 39 21 45 13 89 35 83 41 -2 2 -28 -5 -56 -16 -111 -42 -271 -12
-349 66 -39 40 -87 117 -78 126 2 2 -2 25 -10 51 -24 79 8 198 75 277 24 28
23 25 -9 -45 -32 -66 -34 -166 -5 -216 16 -28 80 -75 106 -78 15 -2 -6 38 -23
42 -22 6 -40 46 -45 102 -2 22 -1 31 2 20 13 -51 37 -105 46 -105 7 0 7 4 -1
13 -6 7 -17 38 -24 67 -13 48 -12 59 4 103 10 28 26 60 36 72 10 12 2 4 -18
-16 -53 -56 -74 -148 -49 -215 9 -24 9 -25 -5 -14 -22 18 -37 86 -30 134 9 53
37 116 71 161 36 48 8 48 -46 -1 -47 -43 -78 -90 -96 -147 -10 -33 -13 -37
-13 -16 -3 87 78 205 192 281 72 49 74 65 3 27 l-38 -20 21 30 c21 29 52 57
37 33 -4 -7 -2 -12 4 -12 6 0 13 6 16 14 3 8 11 13 17 11 7 -3 33 29 59 70 26
41 43 75 39 75 -5 0 -16 -10 -25 -22 -16 -23 -16 -23 -6 -1 5 12 10 23 10 26
0 8 -36 4 -48 -6 -9 -7 -11 -6 -6 7 3 9 2 16 -3 16 -5 0 -22 -26 -37 -57 -65
-133 -146 -252 -240 -352 -33 -36 -157 -133 -162 -128 -2 2 1 29 6 61 10 62 1
96 -24 96 -16 0 -96 -85 -134 -142 -36 -55 -37 -47 -2 22 41 82 86 196 104
268 14 54 14 63 1 96 -12 29 -20 36 -34 31 -14 -4 -20 1 -25 26 -3 17 -6 47
-6 66 0 19 -5 43 -10 54 -11 19 -54 26 -64 10 -3 -5 -14 -7 -24 -4 -11 2 -32
-7 -50 -22 l-32 -27 -26 21 c-35 27 -82 20 -142 -22 -53 -35 -108 -118 -193
-289 -35 -71 -67 -128 -71 -128 -12 0 -143 160 -187 230 -28 43 -40 72 -37 85
48 171 20 295 -110 492 -31 47 -67 109 -80 138 -23 50 -24 61 -19 162 6 109
25 220 49 290 10 29 25 45 66 70 109 66 209 65 339 -4 36 -20 81 -44 99 -54
38 -20 62 -16 62 12 0 25 -189 116 -271 132 -71 13 -174 -9 -225 -48 -18 -14
-35 -25 -38 -25 -8 0 69 143 104 195 50 72 167 192 235 240 105 74 122 81 62
26 -46 -43 -60 -64 -73 -107 -17 -58 -12 -105 14 -139 13 -17 14 -18 8 -2 -35
104 -1 199 93 259 64 40 123 55 294 72 81 9 153 18 160 22 8 5 9 4 2 -3 -17
-17 -87 -41 -171 -58 -104 -21 -152 -44 -191 -89 -38 -42 -45 -103 -16 -127
15 -13 15 -12 5 8 -19 35 -14 69 15 104 36 42 93 67 201 85 93 16 171 47 227
90 35 26 35 26 77 9 23 -9 73 -19 110 -22 l68 -6 73 -76 c39 -42 95 -110 123
-151 61 -88 164 -274 164 -295 0 -10 -14 -4 -45 19 -104 80 -223 67 -477 -54
-69 -33 -86 -51 -63 -70 10 -8 39 2 127 46 200 101 277 115 373 70 66 -30 79
-48 76 -99 -2 -23 -6 -87 -9 -141 l-7 -100 -35 -20 -35 -21 23 29 c31 40 28
55 -5 25 -20 -17 -23 -18 -10 -3 9 11 17 28 17 37 0 11 -8 7 -29 -14 -16 -16
-35 -29 -42 -29 -6 0 0 12 15 26 36 37 33 52 -5 20 -36 -30 -54 -34 -41 -8 5
9 10 32 10 50 l1 33 -40 -35 c-21 -20 -42 -36 -45 -36 -7 0 15 31 29 41 10 7
-2 39 -14 39 -5 0 -9 -5 -9 -11 0 -7 -9 -9 -23 -5 -34 8 -154 -20 -201 -48
-22 -13 -52 -37 -66 -52 l-25 -28 25 17 c60 40 107 66 134 73 46 11 23 -13
-37 -40 -29 -13 -67 -36 -86 -52 -39 -32 -91 -110 -91 -133 1 -12 3 -11 11 4
36 65 64 94 117 121 79 40 163 41 243 1 75 -36 87 -51 64 -77 -22 -24 -131
-80 -156 -80 -14 0 -12 6 12 29 40 40 36 93 -10 128 -22 17 -74 16 -97 -3 -18
-14 -18 -15 6 -8 63 18 110 -10 110 -67 0 -32 -31 -59 -70 -59 -32 0 -43 8
-63 45 -13 24 -16 26 -17 10 0 -31 27 -64 63 -74 25 -8 11 -10 -63 -7 -52 1
-104 6 -115 10 -11 4 -5 -2 14 -15 31 -21 46 -23 135 -22 56 0 114 6 129 12
25 10 31 8 48 -11 20 -25 25 -18 9 13 -9 15 -7 19 6 19 10 0 26 -8 37 -17 19
-17 20 -17 8 5 -16 30 -6 45 21 31 18 -9 19 -8 13 10 -7 24 -2 26 26 11 13 -7
19 -7 19 0 0 5 -4 10 -10 10 -5 0 -10 5 -10 10 0 6 14 3 33 -6 l32 -17 -23 25
c-22 24 -22 25 -4 41 10 9 24 17 30 17 6 0 19 11 29 24 l18 24 22 -60 21 -60
-35 -73 c-60 -127 -76 -293 -42 -430 13 -52 35 -63 25 -12 -37 170 -23 314 41
440 24 49 25 49 44 30 19 -19 19 -20 -5 -90 -49 -145 -54 -247 -17 -346 20
-53 28 -26 8 31 -25 73 -19 176 17 282 14 41 26 76 26 78 0 2 26 -15 57 -38
109 -78 220 -89 289 -28 19 17 32 33 29 36 -3 3 -15 -4 -28 -16 -100 -94 -305
-14 -387 151 -47 97 -55 161 -36 322 21 180 21 357 0 440 -35 139 -111 217
-229 234 l-60 9 47 1 c59 1 91 -11 145 -55 53 -43 80 -81 109 -153 13 -31 24
-47 24 -36 0 26 -45 121 -77 163 -14 18 -43 47 -66 63 -42 30 -40 41 3 12 50
-33 88 -75 110 -124 13 -27 27 -49 32 -49 10 0 -35 92 -66 133 -29 39 -90 74
-161 91 -57 14 -58 14 -20 15 22 0 63 -8 91 -17 l51 -18 11 59 c11 57 55 163
84 200 14 18 15 18 46 -8 l31 -26 -25 -41 c-37 -58 -64 -144 -63 -197 l1 -46
9 55 c9 52 44 141 75 188 l16 24 25 -24 c26 -23 26 -23 21 -1 -4 15 -2 20 7
17 25 -10 28 18 5 36 l-23 17 51 39 c49 36 63 54 43 54 -5 0 -32 -18 -60 -40
-28 -22 -52 -40 -55 -40 -2 0 -13 15 -24 34 -14 24 -17 37 -9 45 15 15 1 26
-16 13 -10 -9 -22 -5 -48 18 -43 34 -136 82 -204 103 -57 18 -185 37 -252 37
-33 0 -69 12 -136 45 -51 25 -119 52 -152 60 -84 22 -235 27 -330 11z m370
-48 c86 -31 146 -61 203 -102 36 -25 41 -32 28 -41 -12 -9 -10 -17 15 -54 30
-45 50 -101 48 -136 0 -11 -9 6 -19 37 -10 31 -28 74 -41 95 -13 21 -24 44
-24 52 0 19 -132 96 -209 123 -124 43 -329 23 -501 -49 -272 -114 -497 -267
-646 -441 -29 -33 -55 -59 -57 -57 -10 10 113 170 193 251 105 105 205 178
325 239 185 93 284 116 475 111 117 -3 151 -8 210 -28z m-32 -43 c83 -22 148
-57 202 -112 66 -65 95 -131 95 -213 0 -58 -3 -69 -31 -103 -26 -31 -93 -77
-114 -77 -13 0 -3 30 14 40 24 12 64 76 59 92 -2 6 -13 -4 -25 -24 -11 -19
-38 -45 -59 -57 l-39 -23 21 23 c34 39 39 56 8 27 -16 -15 -46 -34 -66 -43
-44 -18 -50 -30 -11 -22 15 3 33 3 40 0 23 -9 3 -23 -35 -23 -53 0 -112 -11
-107 -20 2 -4 -40 -10 -94 -13 -416 -22 -810 -444 -849 -909 l-7 -83 -23 110
c-27 136 -28 238 -2 339 33 129 74 200 170 296 97 98 181 147 325 192 76 24
82 27 40 22 -222 -27 -458 -231 -535 -462 -43 -129 -44 -238 -5 -420 8 -40 15
-97 14 -125 l-1 -52 -12 65 c-7 36 -24 103 -37 150 -19 70 -24 109 -24 215 0
72 3 146 7 165 l8 35 -17 -40 c-28 -69 -23 -255 12 -390 20 -76 25 -110 16
-113 -6 -2 -11 -20 -11 -40 -1 -81 -59 -153 -122 -151 -22 1 -21 1 4 10 74 28
96 162 44 275 -15 32 -54 104 -86 159 -74 125 -95 199 -87 310 15 203 126 413
317 599 181 176 479 341 705 391 82 18 228 18 298 0z m459 -69 c126 -24 288
-104 288 -141 0 -8 -2 -15 -4 -15 -2 0 -41 20 -87 44 -92 49 -198 81 -301 92
-38 3 -73 12 -79 20 -10 12 -1 14 49 14 33 0 94 -6 134 -14z m-158 -72 c3 -8
2 -12 -4 -9 -6 3 -10 10 -10 16 0 14 7 11 14 -7z m243 -19 c73 -25 157 -67
168 -86 3 -5 -6 -26 -20 -46 -30 -45 -65 -151 -65 -199 l0 -33 -37 16 c-58 24
-139 22 -196 -6 -32 -16 -45 -26 -36 -31 7 -5 -10 -13 -44 -20 -42 -8 -66 -8
-98 0 l-42 12 53 29 c72 39 86 53 116 115 23 46 26 64 22 126 -2 49 -11 88
-25 117 l-22 44 75 -6 c41 -4 109 -18 151 -32z m-1582 -147 c-89 -97 -159
-205 -244 -378 -89 -181 -105 -241 -99 -375 3 -55 3 -94 1 -87 -3 6 -10 9 -15
5 -8 -4 -9 29 -5 113 15 272 117 495 323 702 51 50 95 92 99 92 4 0 -23 -32
-60 -72z m1830 62 c3 -5 2 -10 -4 -10 -5 0 -13 5 -16 10 -3 6 -2 10 4 10 5 0
13 -4 16 -10z m-474 -163 c-10 -9 -11 -8 -5 6 3 10 9 15 12 12 3 -3 0 -11 -7
-18z m-342 -162 c-3 -2 -63 -11 -135 -20 -71 -8 -152 -21 -179 -29 -27 -9 -51
-14 -52 -12 -9 9 134 51 202 59 47 6 169 8 164 2z m526 -138 c24 -27 60 -78
80 -113 24 -40 42 -61 50 -57 10 3 11 11 5 28 -26 68 -68 133 -119 186 -31 33
-54 59 -51 59 4 0 32 -27 64 -59 52 -55 126 -183 126 -219 0 -7 5 -23 11 -34
9 -17 13 -18 20 -7 6 9 9 -16 8 -68 -1 -46 -5 -83 -8 -83 -10 0 -80 152 -86
187 -9 48 -80 150 -154 223 -38 37 -50 52 -28 35 21 -16 58 -51 82 -78z m-18
56 c27 -27 59 -64 73 -83 13 -19 -5 -5 -39 33 -35 37 -73 74 -84 82 -12 8 -16
15 -10 15 6 0 33 -21 60 -47z m113 -50 c0 -8 -9 0 -50 45 l-45 47 48 -45 c26
-24 47 -45 47 -47z m37 -8 l14 -30 -21 25 c-11 14 -30 39 -42 55 l-22 30 28
-25 c15 -14 34 -38 43 -55z m-1913 -22 c-39 -88 -64 -195 -65 -281 -3 -129 8
-160 135 -377 25 -44 46 -84 46 -89 0 -10 -123 190 -156 256 -66 129 -60 297
16 465 16 35 31 63 35 63 3 0 -2 -17 -11 -37z m1777 -10 c13 -16 12 -17 -3 -4
-10 7 -18 15 -18 17 0 8 8 3 21 -13z m57 -82 c33 -58 21 -51 -17 11 -18 28
-26 47 -19 40 8 -6 24 -29 36 -51z m-1928 -366 c-7 -9 -15 -13 -18 -10 -3 2 1
11 8 20 7 9 15 13 18 10 3 -2 -1 -11 -8 -20z m15 -51 c-23 -17 -34 -2 -14 22
9 11 15 12 23 4 8 -8 6 -15 -9 -26z m-79 -12 l-29 -27 23 32 c13 18 26 30 29
28 3 -3 -8 -18 -23 -33z m89 -22 c-10 -11 -20 -18 -23 -15 -3 3 3 14 13 25 10
11 20 18 23 15 3 -3 -3 -14 -13 -25z m-101 -59 c-26 -34 -49 -59 -52 -56 -3 2
7 20 22 39 14 19 26 38 26 42 0 14 44 56 48 45 2 -5 -18 -37 -44 -70z m136 53
c0 -8 -43 -43 -54 -44 -5 0 1 11 14 25 22 24 40 32 40 19z m20 -33 c0 -11 -45
-41 -62 -41 -7 0 1 11 17 25 32 26 45 31 45 16z m1657 -68 c-9 -9 -19 -14 -23
-11 -10 10 6 28 24 28 15 0 15 -1 -1 -17z m62 14 c-2 -1 -13 -9 -24 -17 -19
-14 -19 -14 -6 3 7 9 18 17 24 17 6 0 8 -1 6 -3z m91 -20 c0 -2 -10 -12 -22
-23 l-23 -19 19 23 c18 21 26 27 26 19z m-1579 -306 c-15 -39 -16 -49 -5 -40
12 10 13 9 8 -5 -15 -40 -102 -59 -140 -31 -18 14 -18 14 3 9 53 -14 124 50
140 126 5 25 8 29 11 14 2 -12 -6 -45 -17 -73z m124 -163 c30 -62 57 -126 60
-143 4 -17 -4 -7 -18 25 -13 30 -43 86 -65 125 -38 62 -52 105 -36 105 3 0 29
-51 59 -112z m72 -210 c-3 -7 -5 -2 -5 12 0 14 2 19 5 13 2 -7 2 -19 0 -25z
m1514 -201 c-10 -9 -11 -8 -5 6 3 10 9 15 12 12 3 -3 0 -11 -7 -18z m-1977
-76 c3 -5 -1 -14 -9 -21 -41 -34 7 -119 66 -120 42 0 69 29 78 85 8 48 9 48
10 12 3 -96 -75 -140 -152 -85 -48 34 -71 100 -45 126 14 14 44 16 52 3z
m1166 -1 c0 -5 -5 -10 -11 -10 -5 0 -7 5 -4 10 3 6 8 10 11 10 2 0 4 -4 4 -10z
m-119 -212 c-24 -39 -28 -30 -5 13 8 17 18 28 21 25 3 -3 -4 -20 -16 -38z
m618 -150 c-21 -74 4 -203 57 -295 35 -60 23 -53 -26 14 -73 102 -101 244 -58
290 30 32 38 29 27 -9z m-54 -164 c8 -28 15 -73 15 -100 1 -136 59 -316 141
-438 58 -87 162 -188 247 -240 34 -21 62 -41 62 -45 0 -19 -82 -246 -114 -315
-130 -282 -342 -397 -731 -397 -201 0 -347 34 -508 118 l-67 36 87 166 c114
219 110 213 178 264 67 49 129 118 199 222 75 110 236 452 331 702 28 74 36
85 80 115 l50 33 8 -35 c4 -19 14 -58 22 -86z m-1239 -72 c4 -68 3 -83 -8 -77
-10 6 -11 5 0 -6 6 -7 12 -19 12 -27 0 -26 -28 6 -46 54 -11 30 -15 57 -10 86
8 48 -2 45 -14 -4 -8 -32 -8 -32 -9 12 0 27 8 63 21 90 l21 45 13 -44 c8 -25
16 -82 20 -129z m259 18 c-10 -16 -65 -42 -65 -30 0 5 15 16 33 24 41 18 39
18 32 6z m-27 -92 c-16 -32 -23 -38 -26 -25 -3 15 32 67 45 67 2 0 -7 -19 -19
-42z m-368 -173 c40 -14 88 -25 107 -25 29 0 33 -3 33 -26 0 -25 -2 -26 -37
-21 -55 9 -154 61 -188 99 -17 18 -21 25 -9 15 11 -9 54 -28 94 -42z m132
-581 c-26 -51 -42 -74 -46 -64 -17 46 -36 103 -34 105 8 5 114 41 116 39 2 -1
-15 -37 -36 -80z m-371 -76 c33 -46 37 -132 9 -177 -12 -18 -23 -32 -25 -30
-1 2 -28 52 -58 112 l-54 107 31 9 c56 16 73 13 97 -21z m2545 11 c3 -5 -4
-37 -15 -72 -11 -34 -25 -82 -31 -106 l-12 -44 -18 28 c-39 59 -32 143 16 196
15 17 49 15 60 -2z m-468 -44 c25 -55 10 -129 -35 -177 -24 -25 -79 -55 -88
-47 -2 2 12 36 31 74 19 39 42 94 51 123 9 28 20 52 23 52 4 0 12 -11 18 -25z
m297 -295 c17 -10 41 -37 53 -59 20 -35 21 -45 13 -106 -8 -57 -15 -71 -42
-96 -119 -107 -304 -1 -275 157 9 44 65 107 108 122 42 14 104 6 143 -18z
m-2265 -59 c-35 -56 -40 -60 -40 -31 0 19 59 95 67 86 2 -2 -10 -27 -27 -55z
m1660 -93 c0 -7 -9 -31 -19 -54 -47 -102 -174 -132 -258 -60 l-27 23 77 17
c42 10 105 32 139 50 71 37 88 42 88 24z m-934 -37 c43 -16 105 -34 137 -42
32 -7 60 -15 62 -19 2 -4 -15 -17 -38 -30 -77 -44 -166 -26 -219 45 -16 21
-35 75 -26 75 2 0 40 -13 84 -29z m-187 -140 c66 -51 86 -122 56 -194 -39 -95
-170 -133 -249 -72 -18 13 -17 16 10 87 15 40 42 106 60 146 32 69 34 72 61
66 15 -3 43 -18 62 -33z m648 24 c70 -30 105 -79 105 -150 0 -86 -58 -154
-144 -169 -74 -13 -155 42 -179 123 -16 55 -4 106 38 152 51 56 113 72 180 44z
m703 -8 c137 -72 108 -273 -44 -307 -48 -11 -98 4 -140 40 -44 39 -60 79 -54
139 6 61 38 108 92 132 55 25 94 24 146 -4z"/>
<path d="M2018 4883 c6 -2 18 -2 25 0 6 3 1 5 -13 5 -14 0 -19 -2 -12 -5z"/>
<path d="M2092 4865 c61 -22 129 -75 157 -121 29 -48 50 -60 27 -16 -31 60
-157 153 -206 151 -8 0 2 -7 22 -14z"/>
<path d="M2111 4820 c36 -19 129 -114 129 -131 0 -5 5 -9 10 -9 15 0 -5 34
-48 82 -32 35 -98 79 -119 78 -4 -1 8 -9 28 -20z"/>
<path d="M2121 4769 c25 -24 55 -57 67 -74 12 -16 22 -24 22 -18 0 17 -65 88
-104 115 -22 15 -18 8 15 -23z"/>
<path d="M2112 4729 c32 -30 62 -69 69 -87 6 -17 15 -32 20 -32 37 0 -61 126
-126 162 -11 6 6 -14 37 -43z"/>
<path d="M2075 4683 c22 -21 49 -58 59 -81 19 -41 36 -55 36 -28 0 18 -46 86
-73 109 -46 37 -60 38 -22 0z"/>
<path d="M2054 4641 c34 -46 35 -50 23 -80 l-14 -32 -28 41 c-15 22 -32 40
-38 40 -6 0 -2 -10 9 -22 11 -13 28 -35 37 -49 15 -25 15 -28 -5 -45 -11 -11
-47 -35 -81 -54 -71 -41 -91 -70 -31 -45 21 8 44 13 52 10 37 -14 172 88 172
130 0 8 -20 -8 -45 -34 -25 -27 -55 -51 -66 -54 -18 -5 -17 -2 6 21 14 14 31
45 37 68 10 38 13 41 25 26 11 -15 12 -15 13 -1 0 18 -80 128 -93 129 -5 0 7
-22 27 -49z"/>
<path d="M835 4098 c-31 -85 -37 -116 -42 -198 -3 -54 -1 -106 5 -120 8 -19
10 1 11 85 0 78 5 130 19 178 11 37 18 67 15 67 -2 0 -6 -6 -8 -12z"/>
<path d="M775 4060 c-4 -17 -5 -34 -2 -36 2 -3 7 10 11 27 8 42 0 50 -9 9z"/>
<path d="M764 3925 c0 -49 1 -71 3 -48 2 23 2 64 0 90 -2 26 -3 8 -3 -42z"/>
<path d="M866 3948 c-11 -36 -17 -237 -7 -208 l9 25 1 -27 c1 -16 4 -28 9 -28
4 0 4 48 1 107 -4 60 -5 118 -2 131 3 12 3 22 0 22 -2 0 -8 -10 -11 -22z m1
-90 c-3 -8 -6 -5 -6 6 -1 11 2 17 5 13 3 -3 4 -12 1 -19z"/>
<path d="M823 3815 c0 -22 2 -30 4 -17 2 12 2 30 0 40 -3 9 -5 -1 -4 -23z"/>
<path d="M906 3809 c-9 -48 -7 -107 4 -114 6 -4 10 22 10 69 0 42 -2 76 -4 76
-2 0 -6 -14 -10 -31z"/>
<path d="M2475 1199 c-182 -67 -265 -102 -265 -109 0 -10 47 4 197 59 112 40
173 67 173 76 0 10 -27 3 -105 -26z"/>
<path d="M1876 1047 c48 -63 84 -68 129 -19 46 49 24 60 -25 12 -33 -33 -48
-31 -84 9 -26 28 -41 27 -20 -2z"/>
<path d="M3310 4770 c-147 -31 -311 -142 -387 -263 -108 -172 -87 -394 56
-575 l41 -52 -35 -54 c-43 -68 -59 -131 -52 -206 5 -61 40 -151 77 -198 79
-101 200 -195 266 -208 19 -3 34 -10 34 -15 0 -14 -94 -121 -160 -182 -34 -32
-94 -81 -134 -109 -86 -61 -275 -156 -328 -164 -21 -4 -38 -10 -38 -14 0 -12
35 -18 165 -31 241 -22 510 18 734 111 l75 31 80 -41 c113 -56 215 -80 345
-80 179 0 324 53 436 161 l60 58 111 -6 c180 -9 341 24 472 99 67 38 164 127
199 182 32 50 63 140 63 181 0 30 3 33 39 39 30 4 48 16 74 47 28 32 37 38 44
25 14 -26 86 -68 124 -73 70 -10 139 45 139 109 0 31 -59 119 -90 135 -68 34
-175 1 -187 -57 -7 -36 -23 -34 -42 5 -13 27 -12 30 10 44 13 8 47 38 76 67
48 49 52 51 47 25 -6 -26 -4 -28 25 -23 25 3 31 1 31 -14 0 -17 6 -18 61 -14
l61 5 68 195 c37 107 81 228 98 268 l30 72 -24 0 c-21 0 -23 2 -13 26 5 15 8
29 5 31 -2 3 -40 0 -83 -7 -141 -20 -129 -12 -148 -93 -24 -98 -30 -108 -45
-76 -10 22 -9 34 8 73 l21 46 -26 0 c-18 0 -24 4 -19 15 3 8 9 22 12 30 7 18
1 18 -86 5 -134 -20 -128 -18 -135 -51 -4 -17 -12 -28 -18 -26 -7 3 -11 10 -9
16 1 6 -10 11 -24 11 -17 0 -24 4 -21 13 22 54 25 51 -37 43 -49 -5 -71 -2
-159 28 -200 68 -486 116 -690 116 l-135 0 -6 34 c-9 48 -59 112 -113 146 -60
38 -78 39 -26 1 48 -35 95 -93 116 -143 12 -28 13 -38 4 -38 -7 0 -22 -3 -34
-6 -21 -6 -23 -3 -23 33 0 125 -172 197 -318 133 l-53 -23 -27 26 c-51 48
-150 104 -233 132 -67 22 -107 28 -194 31 -60 2 -130 -1 -155 -6z m352 -45
c94 -33 181 -87 267 -169 42 -39 57 -50 43 -29 -12 17 -22 33 -22 36 0 2 22
14 49 26 121 52 258 4 277 -97 7 -38 -6 -51 -57 -61 -30 -6 -8 -7 66 -3 189
12 351 6 487 -17 143 -25 375 -81 428 -104 33 -15 34 -16 13 -22 -15 -5 -26
-19 -32 -44 -37 -139 -121 -483 -121 -494 0 -9 9 -12 30 -9 24 3 30 1 30 -14
0 -17 7 -19 59 -16 l59 4 41 118 c76 221 133 370 142 370 23 0 18 -43 -30
-242 -28 -117 -51 -216 -51 -219 0 -3 14 -4 30 -1 24 3 30 1 30 -14 0 -17 7
-19 52 -16 50 2 52 2 29 -12 -18 -10 -46 -12 -101 -9 -76 6 -76 6 -103 -26
-15 -18 -27 -39 -27 -46 0 -30 -21 -24 -41 10 -27 45 -65 65 -126 65 l-48 0
-2 51 c-3 86 -68 185 -168 255 -27 19 -29 23 -18 47 7 14 22 31 34 37 20 11
21 10 17 -19 -2 -17 -4 -31 -4 -31 1 0 16 4 34 9 28 9 32 7 32 -10 0 -24 9
-24 85 0 l60 19 3 58 c2 55 0 63 -36 109 -51 68 -72 77 -162 72 -87 -4 -169
-38 -233 -96 -31 -28 -41 -32 -47 -21 -24 43 -58 85 -82 103 -39 29 -129 34
-222 12 -82 -20 -77 -13 -92 -117 -7 -50 -18 -55 -28 -13 -10 38 -66 115 -100
137 -45 28 -148 21 -209 -15 -49 -29 -149 -132 -173 -179 -19 -36 -23 -33 -35
24 -13 56 -71 143 -112 168 -40 25 -106 26 -173 3 -72 -24 -177 -133 -234
-244 -31 -61 -54 -93 -83 -114 l-40 -29 -39 44 c-53 59 -107 173 -121 253 -24
143 22 268 142 387 81 80 161 127 261 155 88 24 274 14 372 -20z m2027 -632
c8 -22 7 -43 -8 -98 -10 -38 -21 -63 -24 -55 -26 73 -27 84 -11 132 18 55 27
59 43 21z m-1249 -90 c-10 -16 -11 -15 -6 7 3 14 7 36 7 50 2 19 3 18 6 -7 2
-18 -1 -41 -7 -50z m-945 4 c4 -13 -1 -55 -9 -94 -24 -118 -78 -202 -142 -223
-51 -17 -58 -6 -44 71 19 109 76 214 134 250 41 25 54 24 61 -4z m525 -30 c0
-73 -25 -152 -66 -213 -36 -53 -62 -72 -104 -76 -24 -3 -25 -1 -23 45 3 103
64 228 132 274 52 35 61 31 61 -30z m1595 -122 c-6 -34 -77 -135 -82 -119 -3
9 53 177 74 224 10 20 16 -66 8 -105z m-2512 28 c-10 -30 -16 -89 -17 -158 -1
-138 15 -175 101 -232 50 -33 65 -38 113 -37 89 1 192 64 266 165 21 29 39 48
40 43 2 -5 8 -28 14 -52 14 -56 56 -102 125 -136 67 -34 119 -31 197 11 54 30
164 133 173 164 4 11 10 19 14 19 5 0 0 -35 -10 -77 -26 -109 -26 -114 11
-103 26 7 30 6 30 -11 0 -23 9 -23 103 -3 l74 17 18 106 c21 129 27 141 66
141 43 0 99 32 147 84 23 25 42 49 42 53 0 5 4 14 9 22 7 11 17 7 51 -20 141
-113 158 -139 116 -176 -15 -13 -34 -23 -42 -23 -25 0 -91 38 -113 65 l-20 26
-46 -91 -46 -92 22 -24 c12 -13 51 -43 87 -66 60 -39 69 -42 131 -41 72 1 126
19 177 58 32 24 33 24 39 5 3 -11 31 -36 61 -56 47 -32 60 -36 96 -31 46 6 88
33 103 65 10 22 25 30 25 13 0 -6 25 -27 56 -47 l56 -37 -6 -46 c-21 -159
-184 -321 -391 -387 -86 -28 -277 -43 -368 -30 l-45 7 23 52 c13 29 26 75 29
102 l5 50 -15 -50 c-53 -180 -165 -292 -348 -351 -103 -33 -273 -38 -375 -10
-90 24 -185 69 -247 116 -29 22 -58 40 -64 40 -18 0 -11 -28 11 -44 21 -14 21
-14 -7 -29 -110 -56 -324 -110 -508 -127 -114 -10 -346 -4 -346 9 0 4 34 20
77 36 259 99 521 336 639 580 37 75 41 95 22 95 -7 -1 -35 -47 -63 -103 -48
-98 -51 -102 -80 -99 -59 6 -139 54 -216 131 -100 100 -131 160 -137 267 -4
72 -1 89 21 138 23 51 109 156 127 156 5 0 1 -21 -7 -47z"/>
<path d="M4240 4676 c0 -3 22 -26 50 -52 27 -25 59 -66 70 -90 22 -44 40 -57
40 -29 0 26 -26 68 -62 101 -37 35 -98 78 -98 70z"/>
<path d="M2879 3644 c-6 -16 -13 -60 -16 -99 -5 -82 13 -126 67 -162 34 -24
80 -31 80 -13 0 6 -9 10 -20 10 -30 0 -88 58 -101 101 -10 31 -9 54 1 109 14
74 8 102 -11 54z"/>
<path d="M536 3603 c-4 -5 -13 -8 -18 -8 -6 0 -13 -5 -15 -12 -6 -18 28 -9 39
10 9 18 7 22 -6 10z"/>
<path d="M1316 3554 c-4 -10 -3 -20 1 -23 4 -3 15 -15 23 -25 14 -18 14 -19
-10 -6 -14 7 -34 21 -46 31 -21 19 -21 19 -21 -13 0 -18 4 -39 10 -45 19 -25
-16 -13 -45 14 -34 33 -38 12 -3 -22 13 -14 18 -25 11 -25 -14 0 -52 33 -59
52 -2 7 -7 10 -11 7 -9 -8 14 -59 27 -59 6 0 7 -3 4 -7 -4 -3 -16 2 -27 12
-27 24 -26 7 2 -22 26 -28 10 -30 -25 -3 -33 26 -39 25 -25 -5 6 -13 25 -31
43 -39 47 -22 61 -42 35 -49 -11 -3 -20 -10 -20 -16 0 -8 10 -6 30 4 17 9 30
11 30 6 0 -5 -7 -11 -15 -15 -8 -3 -15 -10 -15 -16 0 -6 11 -4 24 5 15 10 27
12 30 6 4 -5 2 -12 -4 -16 -5 -3 -10 -11 -10 -17 0 -6 8 -4 18 5 22 20 55 6
34 -15 -19 -19 -14 -33 6 -15 29 26 45 22 38 -10 l-7 -28 18 22 c16 21 22 22
58 12 48 -14 212 -8 240 9 16 9 3 10 -62 6 -45 -3 -108 0 -140 5 -62 12 -153
53 -178 81 -14 16 -13 20 19 48 112 98 308 74 386 -48 39 -61 53 -59 17 3 -35
59 -88 104 -163 138 -64 29 -98 58 -53 44 51 -16 94 -37 127 -61 47 -36 51
-23 5 15 -42 35 -129 71 -171 71 -15 0 -33 4 -41 9 -8 5 -24 6 -36 1 -14 -5
-26 -5 -32 1 -7 7 -13 4 -17 -7z m128 -40 c4 -12 2 -12 -14 -4 -11 6 -20 15
-20 20 0 14 28 1 34 -16z m-59 6 c3 -6 -1 -7 -9 -4 -18 7 -21 14 -7 14 6 0 13
-4 16 -10z m-90 -30 c10 -11 16 -20 13 -20 -3 0 -13 9 -23 20 -10 11 -16 20
-13 20 3 0 13 -9 23 -20z"/>
<path d="M1430 3420 c-21 -13 -5 -23 18 -11 32 17 57 13 80 -12 39 -42 23 -99
-33 -113 -32 -8 -64 12 -80 49 -14 31 -14 31 -15 6 0 -38 34 -69 76 -69 47 0
70 14 82 50 13 36 -1 86 -28 100 -23 13 -80 13 -100 0z"/>
<path d="M2326 3375 c-8 -31 -1 -45 23 -45 26 0 44 25 36 50 -10 30 -51 27
-59 -5z"/>
<path d="M1469 3385 c-1 -3 -2 -8 -3 -12 -1 -5 -5 -14 -10 -21 -5 -9 -3 -20 7
-29 11 -12 19 -13 36 -4 24 13 26 23 11 52 -10 17 -38 27 -41 14z"/>
<path d="M724 3305 c-32 -22 -47 -68 -42 -130 6 -74 45 -130 118 -168 47 -24
64 -28 113 -25 60 4 109 31 115 62 3 13 -4 11 -34 -9 -48 -33 -74 -39 -128
-31 -134 20 -220 194 -137 277 33 32 52 36 75 14 22 -22 32 -18 11 5 -21 24
-62 26 -91 5z"/>
<path d="M3046 3285 c-11 -8 -17 -17 -14 -21 7 -6 48 17 48 28 0 12 -13 9 -34
-7z"/>
<path d="M1844 3177 c0 -60 3 -100 7 -90 9 22 9 128 0 168 -4 17 -7 -17 -7
-78z"/>
<path d="M2450 3220 c6 -11 13 -20 16 -20 2 0 0 9 -6 20 -6 11 -13 20 -16 20
-2 0 0 -9 6 -20z"/>
<path d="M2330 3211 c0 -12 5 -21 10 -21 6 0 10 6 10 14 0 8 -4 18 -10 21 -5
3 -10 -3 -10 -14z"/>
<path d="M1376 3204 c-4 -9 -4 -19 -1 -22 2 -3 7 3 11 12 4 9 4 19 1 22 -2 3
-7 -3 -11 -12z"/>
<path d="M1451 3204 c0 -11 3 -14 6 -6 3 7 2 16 -1 19 -3 4 -6 -2 -5 -13z"/>
<path d="M5422 3182 c-77 -138 -263 -266 -454 -313 -45 -12 -87 -25 -92 -30
-17 -16 57 -10 132 11 180 50 322 159 421 323 13 21 21 40 19 42 -2 3 -14 -12
-26 -33z"/>
<path d="M1490 3195 c0 -8 2 -15 4 -15 2 0 6 7 10 15 3 8 1 15 -4 15 -6 0 -10
-7 -10 -15z"/>
<path d="M2716 3109 c-20 -100 2 -269 40 -300 20 -16 18 1 -8 57 -19 42 -22
65 -22 162 1 61 0 112 -1 112 -1 0 -5 -14 -9 -31z"/>
<path d="M5387 2975 c-99 -93 -231 -160 -404 -205 -59 -15 -57 -34 2 -25 146
21 356 141 438 249 16 20 27 36 25 36 -2 -1 -29 -25 -61 -55z"/>
<path d="M438 2963 c18 -34 91 -92 162 -128 76 -40 76 -43 1 -14 -79 29 -107
46 -152 86 -22 20 -36 28 -33 19 18 -47 238 -157 336 -169 18 -3 47 -8 63 -12
57 -14 6 21 -78 54 -124 49 -215 99 -264 144 -29 26 -42 34 -35 20z"/>
<path d="M1970 2965 c-31 -18 -92 -19 -108 -3 -7 7 -12 8 -12 4 0 -17 36 -35
68 -36 33 0 92 27 92 42 0 11 -11 9 -40 -7z"/>
<path d="M2970 2970 c0 -8 5 -22 10 -30 9 -13 10 -13 10 0 0 8 -5 22 -10 30
-9 13 -10 13 -10 0z"/>
<path d="M2073 2930 c14 -36 1 -63 -32 -68 -27 -4 -28 -22 -1 -22 23 0 60 33
60 55 0 19 -21 65 -31 65 -4 0 -2 -14 4 -30z"/>
<path d="M1774 2926 c-10 -40 0 -70 28 -86 22 -12 30 -12 40 -2 10 10 10 14 1
20 -9 6 -3 13 17 26 38 22 39 39 3 30 -56 -14 -79 -35 -50 -48 6 -3 3 -4 -8
-3 -17 2 -20 10 -19 45 1 47 -3 53 -12 18z"/>
<path d="M1976 2912 c-3 -6 3 -13 14 -17 11 -3 20 -11 20 -16 0 -12 37 -12 44
0 3 5 0 13 -7 19 -19 16 -64 25 -71 14z"/>
<path d="M4345 2730 c-107 -42 -237 -62 -368 -57 -67 2 -133 7 -147 11 -14 3
-5 -1 20 -10 71 -24 211 -29 315 -11 106 19 212 50 240 71 29 22 2 20 -60 -4z"/>
<path d="M2780 2666 c0 -12 61 -36 92 -36 60 0 65 18 7 23 -30 2 -64 8 -76 12
-13 4 -23 5 -23 1z"/>
<path d="M2996 2629 c-36 -89 -28 -201 19 -237 38 -30 191 -54 162 -26 -3 3
-37 12 -74 20 -92 19 -113 43 -113 127 1 34 7 80 15 102 18 49 10 61 -9 14z"/>
<path d="M3026 2609 c-20 -65 -20 -92 -1 -128 29 -57 112 -101 190 -101 31 0
13 19 -22 25 -65 11 -122 36 -143 62 -22 29 -27 95 -10 152 5 19 8 37 6 39 -3
2 -12 -20 -20 -49z"/>
<path d="M2716 2605 c-15 -25 -26 -49 -23 -52 4 -3 16 11 28 31 12 20 24 35
26 32 3 -3 -2 -15 -11 -28 -18 -25 -20 -38 -8 -38 5 0 17 17 27 38 29 56 30
58 10 42 -17 -14 -18 -13 -12 3 12 32 -8 17 -37 -28z"/>
<path d="M2816 2623 c-4 -5 -12 -8 -18 -8 -13 0 -54 -53 -46 -60 2 -3 22 10
44 29 21 19 36 37 33 40 -3 3 -9 3 -13 -1z"/>
<path d="M4215 2594 c-73 -18 -262 -20 -329 -5 -27 7 -51 10 -53 7 -12 -12
153 -37 241 -37 95 1 210 23 222 42 7 12 -8 10 -81 -7z"/>
<path d="M1008 2573 c7 -3 16 -2 19 1 4 3 -2 6 -13 5 -11 0 -14 -3 -6 -6z"/>
<path d="M1250 2502 c0 -5 -21 -30 -47 -55 -49 -49 -46 -65 4 -23 33 28 69 86
54 86 -6 0 -11 -4 -11 -8z"/>
<path d="M1710 2503 c0 -13 29 -38 35 -31 3 3 -4 13 -15 23 -11 10 -20 13 -20
8z"/>
<path d="M1910 2485 c0 -8 27 -35 34 -35 14 0 4 20 -14 30 -11 6 -20 8 -20 5z"/>
<path d="M1214 2421 l-51 -47 33 -1 c24 -1 44 8 71 32 54 47 34 55 -24 9 l-48
-38 39 42 c55 58 42 60 -20 3z"/>
<path d="M1280 2385 c-13 -14 -21 -27 -18 -30 2 -3 17 9 33 25 16 17 24 30 19
30 -6 0 -21 -11 -34 -25z"/>
<path d="M2807 2358 c-65 -81 -100 -184 -91 -268 3 -28 2 -31 -5 -15 -5 11
-10 45 -11 75 0 45 -3 51 -11 36 -16 -26 -6 -106 18 -152 18 -36 80 -90 91
-79 3 2 -9 20 -26 39 -35 40 -48 101 -38 173 6 49 42 134 70 168 11 14 10 7
-4 -21 -43 -87 -34 -167 26 -234 59 -65 126 -74 202 -28 36 22 69 65 58 75 -3
4 -21 -7 -39 -24 -44 -42 -69 -53 -117 -53 -53 0 -92 27 -119 83 -34 69 -26
137 26 219 25 42 27 48 14 48 -5 0 -25 -19 -44 -42z"/>
<path d="M1626 2344 c-4 -10 1 -25 10 -36 24 -26 31 -13 8 14 -16 19 -16 20
-1 9 24 -19 31 -8 8 13 -17 16 -19 16 -25 0z"/>
<path d="M1328 2322 c-39 -23 -38 -48 0 -28 36 19 61 46 41 46 -8 0 -26 -8
-41 -18z"/>
<path d="M1790 2233 c0 -5 9 -18 20 -28 11 -10 20 -14 20 -8 0 5 -9 18 -20 28
-11 10 -20 14 -20 8z"/>
<path d="M2616 2194 c-9 -25 -7 -120 4 -148 5 -14 7 -26 5 -26 -7 0 -25 47
-36 95 -8 38 -8 38 -4 -12 4 -57 24 -102 57 -133 36 -33 39 -23 10 33 -22 43
-27 65 -27 129 0 43 -1 78 -1 78 -1 0 -5 -7 -8 -16z"/>
<path d="M3170 2080 c-44 -44 -92 -79 -143 -105 -42 -22 -77 -43 -77 -47 0
-25 86 12 163 71 43 32 136 138 126 144 -2 1 -33 -27 -69 -63z"/>
<path d="M1925 2120 c-7 -11 11 -40 25 -40 11 0 6 28 -7 41 -8 8 -13 8 -18 -1z"/>
<path d="M3136 2096 c-33 -44 -75 -74 -145 -102 -39 -16 -49 -24 -32 -24 55 0
168 78 201 139 16 31 6 25 -24 -13z"/>
<path d="M2100 2078 c0 -9 5 -20 11 -23 17 -11 20 0 4 21 -13 17 -14 17 -15 2z"/>
<path d="M1547 1974 c-11 -14 -16 -28 -12 -32 7 -7 45 34 45 49 0 16 -15 9
-33 -17z"/>
<path d="M2050 1975 c0 -15 18 -40 24 -34 3 3 -1 14 -9 25 -8 10 -14 15 -15 9z"/>
<path d="M2555 1905 c36 -28 122 -48 173 -39 46 8 44 8 -38 14 -50 4 -99 13
-120 23 -28 14 -31 15 -15 2z"/>
<path d="M1680 1890 c0 -6 -11 -16 -25 -22 -28 -12 -33 -28 -10 -28 15 0 55
38 55 52 0 4 -4 8 -10 8 -5 0 -10 -5 -10 -10z"/>
<path d="M2545 1879 c13 -20 90 -51 140 -56 60 -6 115 9 141 39 17 19 15 19
-14 -3 -28 -20 -45 -24 -105 -24 -60 0 -80 5 -120 27 -26 15 -45 23 -42 17z"/>
<path d="M2545 1851 c43 -48 98 -71 173 -71 57 0 142 23 130 35 -3 3 -21 -2
-41 -10 -79 -33 -192 -10 -262 53 l-30 27 30 -34z"/>
<path d="M1832 1798 c-14 -14 -16 -28 -3 -28 9 0 24 30 18 36 -2 2 -9 -2 -15
-8z"/>
<path d="M1908 1716 c-29 -21 -22 -40 7 -19 24 18 32 33 18 33 -5 0 -16 -7
-25 -14z"/>
</g>
</svg>
